<svg xmlns="http://www.w3.org/2000/svg" width="1198.3729248046875" height="603.494873046875" viewBox="-887.539794921875 -342.06939697265625 1198.3729248046875 603.494873046875"><title>Neo4j Graph Visualization</title><desc>Created using Neo4j (http://www.neo4j.com/)</desc><g class="layer relationships"><g class="relationship" transform="translate(-209.32188514032765 -313.069402504017) rotate(538.8845522439822)"><path class="b-outline" fill="#A5ABB6" stroke="none" d="M 24.018736134675446,-6.953439040707552 L 24.277555179777966,-5.987513214418485 A 312.3951469134555 312.3951469134555 0 0 1 73.49450821355437,-15.026028060126066 L 73.39323627992286,-16.02088684179239 A 313.3951469134555 313.3951469134555 0 0 0 24.018736134675446,-6.953439040707552 Z M 131.70464507637033,-16.50349213702259 L 131.61985347528937,-15.507093429483234 A 312.3951469134555 312.3951469134555 0 0 1 180.97966593158992,-7.28443383395911 L 180.25127788316078,-4.374201738248257 L 187.89160549632012,-6.069900403576237 L 181.95084999616213,-11.164743294906913 L 181.222461947733,-8.25451119919606 A 313.3951469134555 313.3951469134555 0 0 0 131.70464507637033,-16.50349213702259"/><text text-anchor="middle" pointer-events="none" font-size="8px" fill="#000000" x="102.5418295235263" y="-14.121403941002086" transform="rotate(180 102.5418295235263 -17.121403941002086)" font-family="Helvetica Neue, Helvetica, Arial, sans-serif">MARRIED_TO</text></g><g class="relationship" transform="translate(-209.32188514032765 -313.069402504017) rotate(525.8575887042349)"><path class="b-outline" fill="#A5ABB6" stroke="none" d="M 25 0.5 L 302.1894506466045 0.5 L 302.1894506466045 -0.5 L 25 -0.5 Z M 355.6035131466045 0.5 L 632.792963793209 0.5 L 632.792963793209 3.5 L 639.792963793209 0 L 632.792963793209 -3.5 L 632.792963793209 -0.5 L 355.6035131466045 -0.5 Z"/><text text-anchor="middle" pointer-events="none" font-size="8px" fill="#000000" x="328.8964818966045" y="3" transform="rotate(180 328.8964818966045 0)" font-family="Helvetica Neue, Helvetica, Arial, sans-serif">PARENT_OF</text></g><g class="relationship" transform="translate(-209.32188514032765 -313.069402504017) rotate(515.3531525226568)"><path class="b-outline" fill="#A5ABB6" stroke="none" d="M 25 0.5 L 180.2384236169354 0.5 L 180.2384236169354 -0.5 L 25 -0.5 Z M 233.6524861169354 0.5 L 388.8909097338708 0.5 L 388.8909097338708 3.5 L 395.8909097338708 0 L 388.8909097338708 -3.5 L 388.8909097338708 -0.5 L 233.6524861169354 -0.5 Z"/><text text-anchor="middle" pointer-events="none" font-size="8px" fill="#000000" x="206.9454548669354" y="3" transform="rotate(180 206.9454548669354 0)" font-family="Helvetica Neue, Helvetica, Arial, sans-serif">PARENT_OF</text></g><g class="relationship" transform="translate(-209.32188514032765 -313.069402504017) rotate(496.24498271029387)"><path class="b-outline" fill="#A5ABB6" stroke="none" d="M 25 0.5 L 98.13915092734814 0.5 L 98.13915092734814 -0.5 L 25 -0.5 Z M 151.55321342734814 0.5 L 224.69236435469628 0.5 L 224.69236435469628 3.5 L 231.69236435469628 0 L 224.69236435469628 -3.5 L 224.69236435469628 -0.5 L 151.55321342734814 -0.5 Z"/><text text-anchor="middle" pointer-events="none" font-size="8px" fill="#000000" x="124.84618217734814" y="3" transform="rotate(180 124.84618217734814 0)" font-family="Helvetica Neue, Helvetica, Arial, sans-serif">PARENT_OF</text></g><g class="relationship" transform="translate(-209.32188514032765 -313.069402504017) rotate(428.5418282228625)"><path class="b-outline" fill="#A5ABB6" stroke="none" d="M 25 0.5 L 64.8623084731704 0.5 L 64.8623084731704 -0.5 L 25 -0.5 Z M 118.2763709731704 0.5 L 158.1386794463408 0.5 L 158.1386794463408 3.5 L 165.1386794463408 0 L 158.1386794463408 -3.5 L 158.1386794463408 -0.5 L 118.2763709731704 -0.5 Z"/><text text-anchor="middle" pointer-events="none" font-size="8px" fill="#000000" x="91.5693397231704" y="3" font-family="Helvetica Neue, Helvetica, Arial, sans-serif">PARENT_OF</text></g><g class="relationship" transform="translate(-209.32188514032765 -313.069402504017) rotate(387.72168273695394)"><path class="b-outline" fill="#A5ABB6" stroke="none" d="M 25 0.5 L 153.73166362536517 0.5 L 153.73166362536517 -0.5 L 25 -0.5 Z M 207.14572612536517 0.5 L 335.87738975073034 0.5 L 335.87738975073034 3.5 L 342.87738975073034 0 L 335.87738975073034 -3.5 L 335.87738975073034 -0.5 L 207.14572612536517 -0.5 Z"/><text text-anchor="middle" pointer-events="none" font-size="8px" fill="#000000" x="180.43869487536517" y="3" font-family="Helvetica Neue, Helvetica, Arial, sans-serif">PARENT_OF</text></g><g class="relationship" transform="translate(-421.42522354121354 -308.9396028992817) rotate(358.88455224398217)"><path class="b-outline" fill="#A5ABB6" stroke="none" d="M 24.018736134675446,-6.953439040707552 L 24.277555179777966,-5.987513214418485 A 312.3951469134555 312.3951469134555 0 0 1 73.49450821355437,-15.026028060126066 L 73.39323627992286,-16.02088684179239 A 313.3951469134555 313.3951469134555 0 0 0 24.018736134675446,-6.953439040707552 Z M 131.70464507637033,-16.50349213702259 L 131.61985347528937,-15.507093429483234 A 312.3951469134555 312.3951469134555 0 0 1 180.97966593158992,-7.28443383395911 L 180.25127788316078,-4.374201738248257 L 187.89160549632012,-6.069900403576237 L 181.95084999616213,-11.164743294906913 L 181.222461947733,-8.25451119919606 A 313.3951469134555 313.3951469134555 0 0 0 131.70464507637033,-16.50349213702259"/><text text-anchor="middle" pointer-events="none" font-size="8px" fill="#000000" x="102.5418295235263" y="-14.121403941002086" font-family="Helvetica Neue, Helvetica, Arial, sans-serif">MARRIED_TO</text></g><g class="relationship" transform="translate(-421.42522354121354 -308.9396028992817) rotate(519.8984171220662)"><path class="b-outline" fill="#A5ABB6" stroke="none" d="M 25 0.5 L 200.09204040600247 0.5 L 200.09204040600247 -0.5 L 25 -0.5 Z M 253.50610290600247 0.5 L 428.59814331200494 0.5 L 428.59814331200494 3.5 L 435.59814331200494 0 L 428.59814331200494 -3.5 L 428.59814331200494 -0.5 L 253.50610290600247 -0.5 Z"/><text text-anchor="middle" pointer-events="none" font-size="8px" fill="#000000" x="226.79907165600247" y="3" transform="rotate(180 226.79907165600247 0)" font-family="Helvetica Neue, Helvetica, Arial, sans-serif">PARENT_OF</text></g><g class="relationship" transform="translate(-421.42522354121354 -308.9396028992817) rotate(494.84087600611076)"><path class="b-outline" fill="#A5ABB6" stroke="none" d="M 25 0.5 L 90.65012292636054 0.5 L 90.65012292636054 -0.5 L 25 -0.5 Z M 144.06418542636055 0.5 L 209.71430835272108 0.5 L 209.71430835272108 3.5 L 216.71430835272108 0 L 209.71430835272108 -3.5 L 209.71430835272108 -0.5 L 144.06418542636055 -0.5 Z"/><text text-anchor="middle" pointer-events="none" font-size="8px" fill="#000000" x="117.35715417636054" y="3" transform="rotate(180 117.35715417636054 0)" font-family="Helvetica Neue, Helvetica, Arial, sans-serif">PARENT_OF</text></g><g class="relationship" transform="translate(-421.42522354121354 -308.9396028992817) rotate(441.24809475450115)"><path class="b-outline" fill="#A5ABB6" stroke="none" d="M 25 0.5 L 57.51059233961911 0.5 L 57.51059233961911 -0.5 L 25 -0.5 Z M 110.92465483961911 0.5 L 143.43524717923822 0.5 L 143.43524717923822 3.5 L 150.43524717923822 0 L 143.43524717923822 -3.5 L 143.43524717923822 -0.5 L 110.92465483961911 -0.5 Z"/><text text-anchor="middle" pointer-events="none" font-size="8px" fill="#000000" x="84.21762358961911" y="3" font-family="Helvetica Neue, Helvetica, Arial, sans-serif">PARENT_OF</text></g><g class="relationship" transform="translate(-421.42522354121354 -308.9396028992817) rotate(391.533674103178)"><path class="b-outline" fill="#A5ABB6" stroke="none" d="M 25 0.5 L 135.0219645164038 0.5 L 135.0219645164038 -0.5 L 25 -0.5 Z M 188.4360270164038 0.5 L 298.4579915328076 0.5 L 298.4579915328076 3.5 L 305.4579915328076 0 L 298.4579915328076 -3.5 L 298.4579915328076 -0.5 L 188.4360270164038 -0.5 Z"/><text text-anchor="middle" pointer-events="none" font-size="8px" fill="#000000" x="161.7289957664038" y="3" font-family="Helvetica Neue, Helvetica, Arial, sans-serif">PARENT_OF</text></g><g class="relationship" transform="translate(-421.42522354121354 -308.9396028992817) rotate(377.25204023455547)"><path class="b-outline" fill="#A5ABB6" stroke="none" d="M 25 0.5 L 251.3372685096797 0.5 L 251.3372685096797 -0.5 L 25 -0.5 Z M 304.7513310096797 0.5 L 531.0885995193594 0.5 L 531.0885995193594 3.5 L 538.0885995193594 0 L 531.0885995193594 -3.5 L 531.0885995193594 -0.5 L 304.7513310096797 -0.5 Z"/><text text-anchor="middle" pointer-events="none" font-size="8px" fill="#000000" x="278.0442997596797" y="3" font-family="Helvetica Neue, Helvetica, Arial, sans-serif">PARENT_OF</text></g><g class="relationship" transform="translate(-853.965919325241 -150.63863602562154) rotate(360.4489956497288)"><path class="b-outline" fill="#A5ABB6" stroke="none" d="M 24.018736134675446,-6.953439040707552 L 24.277555179777966,-5.987513214418485 A 217.61539754933162 217.61539754933162 0 0 1 49.3102450253012,-11.14125444152063 L 49.16645777540907,-12.130863064547157 A 218.61539754933162 218.61539754933162 0 0 0 24.018736134675446,-6.953439040707552 Z M 107.42767462398857,-12.750306911159527 L 107.30496089772949,-11.757864801317538 A 217.61539754933162 217.61539754933162 0 0 1 132.441570467506,-7.13753268395699 L 131.72690128768403,-4.223901279092506 L 139.35915527549346,-5.9555764985164625 L 133.39446270726864,-11.022374557109636 L 132.67979352744666,-8.10874315224515 A 218.61539754933162 218.61539754933162 0 0 0 107.42767462398857,-12.750306911159527"/><text text-anchor="middle" pointer-events="none" font-size="8px" fill="#000000" x="78.28165308848749" y="-10.890250876869402" font-family="Helvetica Neue, Helvetica, Arial, sans-serif">MARRIED_TO</text></g><g class="relationship" transform="translate(-853.965919325241 -150.63863602562154) rotate(410.805774217596)"><path class="b-outline" fill="#A5ABB6" stroke="none" d="M 25 0.5 L 94.12240103992897 0.5 L 94.12240103992897 -0.5 L 25 -0.5 Z M 147.53646353992897 0.5 L 216.65886457985795 0.5 L 216.65886457985795 3.5 L 223.65886457985795 0 L 216.65886457985795 -3.5 L 216.65886457985795 -0.5 L 147.53646353992897 -0.5 Z"/><text text-anchor="middle" pointer-events="none" font-size="8px" fill="#000000" x="120.82943228992897" y="3" font-family="Helvetica Neue, Helvetica, Arial, sans-serif">PARENT_OF</text></g><g class="relationship" transform="translate(-853.965919325241 -150.63863602562154) rotate(451.4136405389063)"><path class="b-outline" fill="#A5ABB6" stroke="none" d="M 25 0.5 L 62.493281572969295 0.5 L 62.493281572969295 -0.5 L 25 -0.5 Z M 115.9073440729693 0.5 L 153.4006256459386 0.5 L 153.4006256459386 3.5 L 160.4006256459386 0 L 153.4006256459386 -3.5 L 153.4006256459386 -0.5 L 115.9073440729693 -0.5 Z"/><text text-anchor="middle" pointer-events="none" font-size="8px" fill="#000000" x="89.2003128229693" y="3" transform="rotate(180 89.2003128229693 0)" font-family="Helvetica Neue, Helvetica, Arial, sans-serif">PARENT_OF</text></g><g class="relationship" transform="translate(-690.3315268640202 -149.35629664606967) rotate(180.44899564972877)"><path class="b-outline" fill="#A5ABB6" stroke="none" d="M 24.018736134675446,-6.953439040707552 L 24.277555179777966,-5.987513214418485 A 217.61539754933162 217.61539754933162 0 0 1 49.3102450253012,-11.14125444152063 L 49.16645777540907,-12.130863064547157 A 218.61539754933162 218.61539754933162 0 0 0 24.018736134675446,-6.953439040707552 Z M 107.42767462398857,-12.750306911159527 L 107.30496089772949,-11.757864801317538 A 217.61539754933162 217.61539754933162 0 0 1 132.441570467506,-7.13753268395699 L 131.72690128768403,-4.223901279092506 L 139.35915527549346,-5.9555764985164625 L 133.39446270726864,-11.022374557109636 L 132.67979352744666,-8.10874315224515 A 218.61539754933162 218.61539754933162 0 0 0 107.42767462398857,-12.750306911159527"/><text text-anchor="middle" pointer-events="none" font-size="8px" fill="#000000" x="78.28165308848749" y="-10.890250876869402" transform="rotate(180 78.28165308848749 -13.890250876869402)" font-family="Helvetica Neue, Helvetica, Arial, sans-serif">MARRIED_TO</text></g><g class="relationship" transform="translate(-690.3315268640202 -149.35629664606967) rotate(451.9429695542676)"><path class="b-outline" fill="#A5ABB6" stroke="none" d="M 25 0.5 L 65.56318730395192 0.5 L 65.56318730395192 -0.5 L 25 -0.5 Z M 118.97724980395192 0.5 L 159.54043710790384 0.5 L 159.54043710790384 3.5 L 166.54043710790384 0 L 159.54043710790384 -3.5 L 159.54043710790384 -0.5 L 118.97724980395192 -0.5 Z"/><text text-anchor="middle" pointer-events="none" font-size="8px" fill="#000000" x="92.27021855395192" y="3" transform="rotate(180 92.27021855395192 0)" font-family="Helvetica Neue, Helvetica, Arial, sans-serif">PARENT_OF</text></g><g class="relationship" transform="translate(-690.3315268640202 -149.35629664606967) rotate(492.4231937324012)"><path class="b-outline" fill="#A5ABB6" stroke="none" d="M 25 0.5 L 94.46532555612647 0.5 L 94.46532555612647 -0.5 L 25 -0.5 Z M 147.87938805612646 0.5 L 217.34471361225295 0.5 L 217.34471361225295 3.5 L 224.34471361225295 0 L 217.34471361225295 -3.5 L 217.34471361225295 -0.5 L 147.87938805612646 -0.5 Z"/><text text-anchor="middle" pointer-events="none" font-size="8px" fill="#000000" x="121.17235680612647" y="3" transform="rotate(180 121.17235680612647 0)" font-family="Helvetica Neue, Helvetica, Arial, sans-serif">PARENT_OF</text></g><g class="relationship" transform="translate(-696.825651154906 42.07401808276684) rotate(452.21833133378595)"><path class="b-outline" fill="#A5ABB6" stroke="none" d="M 24.018736134675446,-6.953439040707552 L 24.277555179777966,-5.987513214418485 A 238.38427278985418 238.38427278985418 0 0 1 54.59000857006667,-12.035074349339567 L 54.45834746636497,-13.02636913585468 A 239.38427278985418 239.38427278985418 0 0 0 24.018736134675446,-6.953439040707552 Z M 112.73723758515455,-13.609705525464108 L 112.62544539328428,-12.61597391892397 A 238.38427278985418 238.38427278985418 0 0 1 143.05287822514313,-7.176382253941141 L 142.3345808409266,-4.263643187730831 L 149.9689856103366,-5.985811535137654 L 144.01060807076516,-11.060034342221556 L 143.29231068654863,-8.147295276011246 A 239.38427278985418 239.38427278985418 0 0 0 112.73723758515455,-13.609705525464108"/><text text-anchor="middle" pointer-events="none" font-size="8px" fill="#000000" x="83.58497792627799" y="-11.598294568879396" transform="rotate(180 83.58497792627799 -14.598294568879396)" font-family="Helvetica Neue, Helvetica, Arial, sans-serif">MARRIED_TO</text></g><g class="relationship" transform="translate(-703.5701183994975 216.1852495373511) rotate(272.21833133378595)"><path class="b-outline" fill="#A5ABB6" stroke="none" d="M 24.018736134675446,-6.953439040707552 L 24.277555179777966,-5.987513214418485 A 238.38427278985418 238.38427278985418 0 0 1 54.59000857006667,-12.035074349339567 L 54.45834746636497,-13.02636913585468 A 239.38427278985418 239.38427278985418 0 0 0 24.018736134675446,-6.953439040707552 Z M 112.73723758515455,-13.609705525464108 L 112.62544539328428,-12.61597391892397 A 238.38427278985418 238.38427278985418 0 0 1 143.05287822514313,-7.176382253941141 L 142.3345808409266,-4.263643187730831 L 149.9689856103366,-5.985811535137654 L 144.01060807076516,-11.060034342221556 L 143.29231068654863,-8.147295276011246 A 239.38427278985418 239.38427278985418 0 0 0 112.73723758515455,-13.609705525464108"/><text text-anchor="middle" pointer-events="none" font-size="8px" fill="#000000" x="83.58497792627799" y="-11.598294568879396" font-family="Helvetica Neue, Helvetica, Arial, sans-serif">MARRIED_TO</text></g><g class="relationship" transform="translate(-591.8677121326072 -137.5477566953068) rotate(358.2017664929417)"><path class="b-outline" fill="#A5ABB6" stroke="none" d="M 24.018736134675446,-6.953439040707552 L 24.277555179777966,-5.987513214418485 A 136.53860412530048 136.53860412530048 0 0 1 28.921230997650966,-7.144952251931329 L 28.696421937106447,-8.119355087670783 A 137.53860412530048 137.53860412530048 0 0 0 24.018736134675446,-6.953439040707552 Z M 86.76777122862228,-8.933347447032702 L 86.57036174433838,-7.953026328462471 A 136.53860412530048 136.53860412530048 0 0 1 91.24465466952103,-6.926198262696576 L 90.54972354979074,-4.007796176137836 L 98.17008139144647,-5.791092664419036 L 92.17122949582807,-10.817401044774897 L 91.47629837609779,-7.898998958216157 A 137.53860412530048 137.53860412530048 0 0 0 86.76777122862228,-8.933347447032702"/><text text-anchor="middle" pointer-events="none" font-size="8px" fill="#000000" x="57.695650120443574" y="-8.126492688012092" font-family="Helvetica Neue, Helvetica, Arial, sans-serif">MARRIED_TO</text></g><g class="relationship" transform="translate(-591.8677121326072 -137.5477566953068) rotate(418.7847804868786)"><path class="b-outline" fill="#A5ABB6" stroke="none" d="M 25 0.5 L 80.38398187239429 0.5 L 80.38398187239429 -0.5 L 25 -0.5 Z M 133.7980443723943 0.5 L 189.18202624478857 0.5 L 189.18202624478857 3.5 L 196.18202624478857 0 L 189.18202624478857 -3.5 L 189.18202624478857 -0.5 L 133.7980443723943 -0.5 Z"/><text text-anchor="middle" pointer-events="none" font-size="8px" fill="#000000" x="107.09101312239429" y="3" font-family="Helvetica Neue, Helvetica, Arial, sans-serif">PARENT_OF</text></g><g class="relationship" transform="translate(-591.8677121326072 -137.5477566953068) rotate(449.42711136840325)"><path class="b-outline" fill="#A5ABB6" stroke="none" d="M 25 0.5 L 63.681587810804785 0.5 L 63.681587810804785 -0.5 L 25 -0.5 Z M 117.09565031080479 0.5 L 155.77723812160957 0.5 L 155.77723812160957 3.5 L 162.77723812160957 0 L 155.77723812160957 -3.5 L 155.77723812160957 -0.5 L 117.09565031080479 -0.5 Z"/><text text-anchor="middle" pointer-events="none" font-size="8px" fill="#000000" x="90.38861906080479" y="3" font-family="Helvetica Neue, Helvetica, Arial, sans-serif">PARENT_OF</text></g><g class="relationship" transform="translate(-469.4379362579607 -141.39148903247886) rotate(538.2017664929417)"><path class="b-outline" fill="#A5ABB6" stroke="none" d="M 24.018736134675446,-6.953439040707552 L 24.277555179777966,-5.987513214418485 A 136.53860412530048 136.53860412530048 0 0 1 28.921230997650966,-7.144952251931329 L 28.696421937106447,-8.119355087670783 A 137.53860412530048 137.53860412530048 0 0 0 24.018736134675446,-6.953439040707552 Z M 86.76777122862228,-8.933347447032702 L 86.57036174433838,-7.953026328462471 A 136.53860412530048 136.53860412530048 0 0 1 91.24465466952103,-6.926198262696576 L 90.54972354979074,-4.007796176137836 L 98.17008139144647,-5.791092664419036 L 92.17122949582807,-10.817401044774897 L 91.47629837609779,-7.898998958216157 A 137.53860412530048 137.53860412530048 0 0 0 86.76777122862228,-8.933347447032702"/><text text-anchor="middle" pointer-events="none" font-size="8px" fill="#000000" x="57.695650120443574" y="-8.126492688012092" transform="rotate(180 57.695650120443574 -11.126492688012092)" font-family="Helvetica Neue, Helvetica, Arial, sans-serif">MARRIED_TO</text></g><g class="relationship" transform="translate(-469.4379362579607 -141.39148903247886) rotate(452.3146413098016)"><path class="b-outline" fill="#A5ABB6" stroke="none" d="M 25 0.5 L 66.37401372838032 0.5 L 66.37401372838032 -0.5 L 25 -0.5 Z M 119.78807622838032 0.5 L 161.16208995676064 0.5 L 161.16208995676064 3.5 L 168.16208995676064 0 L 161.16208995676064 -3.5 L 161.16208995676064 -0.5 L 119.78807622838032 -0.5 Z"/><text text-anchor="middle" pointer-events="none" font-size="8px" fill="#000000" x="93.08104497838032" y="3" transform="rotate(180 93.08104497838032 0)" font-family="Helvetica Neue, Helvetica, Arial, sans-serif">PARENT_OF</text></g><g class="relationship" transform="translate(-469.4379362579607 -141.39148903247886) rotate(482.17601474889045)"><path class="b-outline" fill="#A5ABB6" stroke="none" d="M 25 0.5 L 82.98290518576255 0.5 L 82.98290518576255 -0.5 L 25 -0.5 Z M 136.39696768576255 0.5 L 194.3798728715251 0.5 L 194.3798728715251 3.5 L 201.3798728715251 0 L 194.3798728715251 -3.5 L 194.3798728715251 -0.5 L 136.39696768576255 -0.5 Z"/><text text-anchor="middle" pointer-events="none" font-size="8px" fill="#000000" x="109.68993643576255" y="3" transform="rotate(180 109.68993643576255 0)" font-family="Helvetica Neue, Helvetica, Arial, sans-serif">PARENT_OF</text></g><g class="relationship" transform="translate(-394.73165387920534 -135.5470445481808) rotate(356.00527619929437)"><path class="b-outline" fill="#A5ABB6" stroke="none" d="M 24.018736134675446,-6.953439040707552 L 24.277555179777966,-5.987513214418485 A 230.32460609722895 230.32460609722895 0 0 1 52.53939697329426,-11.692023922134808 L 52.40328232470588,-12.68271701408591 A 231.32460609722895 231.32460609722895 0 0 0 24.018736134675446,-6.953439040707552 Z M 110.67599677666195,-13.2795657952785 L 110.56020257977515,-12.28629256803066 A 230.32460609722895 230.32460609722895 0 0 1 138.9329581369016,-7.161852494057212 L 138.21601769433087,-4.248779133874448 L 145.84961938442316,-5.974503688089329 L 139.8888787269959,-11.04595030763423 L 139.17193828442518,-8.132876947451466 A 231.32460609722895 231.32460609722895 0 0 0 110.67599677666195,-13.2795657952785"/><text text-anchor="middle" pointer-events="none" font-size="8px" fill="#000000" x="81.52589038065362" y="-11.323527423341687" font-family="Helvetica Neue, Helvetica, Arial, sans-serif">MARRIED_TO</text></g><g class="relationship" transform="translate(-394.73165387920534 -135.5470445481808) rotate(446.79814605493823)"><path class="b-outline" fill="#A5ABB6" stroke="none" d="M 25 0.5 L 68.51541599246572 0.5 L 68.51541599246572 -0.5 L 25 -0.5 Z M 121.92947849246572 0.5 L 165.44489448493144 0.5 L 165.44489448493144 3.5 L 172.44489448493144 0 L 165.44489448493144 -3.5 L 165.44489448493144 -0.5 L 121.92947849246572 -0.5 Z"/><text text-anchor="middle" pointer-events="none" font-size="8px" fill="#000000" x="95.22244724246572" y="3" font-family="Helvetica Neue, Helvetica, Arial, sans-serif">PARENT_OF</text></g><g class="relationship" transform="translate(-394.73165387920534 -135.5470445481808) rotate(414.1796634652477)"><path class="b-outline" fill="#A5ABB6" stroke="none" d="M 25 0.5 L 93.0846225965087 0.5 L 93.0846225965087 -0.5 L 25 -0.5 Z M 146.4986850965087 0.5 L 214.5833076930174 0.5 L 214.5833076930174 3.5 L 221.5833076930174 0 L 214.5833076930174 -3.5 L 214.5833076930174 -0.5 L 146.4986850965087 -0.5 Z"/><text text-anchor="middle" pointer-events="none" font-size="8px" fill="#000000" x="119.7916538465087" y="3" font-family="Helvetica Neue, Helvetica, Arial, sans-serif">PARENT_OF</text></g><g class="relationship" transform="translate(-225.01974756309397 -147.39875251958898) rotate(536.0052761992944)"><path class="b-outline" fill="#A5ABB6" stroke="none" d="M 24.018736134675446,-6.953439040707552 L 24.277555179777966,-5.987513214418485 A 230.32460609722895 230.32460609722895 0 0 1 52.53939697329426,-11.692023922134808 L 52.40328232470588,-12.68271701408591 A 231.32460609722895 231.32460609722895 0 0 0 24.018736134675446,-6.953439040707552 Z M 110.67599677666195,-13.2795657952785 L 110.56020257977515,-12.28629256803066 A 230.32460609722895 230.32460609722895 0 0 1 138.9329581369016,-7.161852494057212 L 138.21601769433087,-4.248779133874448 L 145.84961938442316,-5.974503688089329 L 139.8888787269959,-11.04595030763423 L 139.17193828442518,-8.132876947451466 A 231.32460609722895 231.32460609722895 0 0 0 110.67599677666195,-13.2795657952785"/><text text-anchor="middle" pointer-events="none" font-size="8px" fill="#000000" x="81.52589038065362" y="-11.323527423341687" transform="rotate(180 81.52589038065362 -14.323527423341687)" font-family="Helvetica Neue, Helvetica, Arial, sans-serif">MARRIED_TO</text></g><g class="relationship" transform="translate(-225.01974756309397 -147.39875251958898) rotate(487.20922475899533)"><path class="b-outline" fill="#A5ABB6" stroke="none" d="M 25 0.5 L 100.99577960144703 0.5 L 100.99577960144703 -0.5 L 25 -0.5 Z M 154.40984210144703 0.5 L 230.40562170289405 0.5 L 230.40562170289405 3.5 L 237.40562170289405 0 L 230.40562170289405 -3.5 L 230.40562170289405 -0.5 L 154.40984210144703 -0.5 Z"/><text text-anchor="middle" pointer-events="none" font-size="8px" fill="#000000" x="127.70281085144703" y="3" transform="rotate(180 127.70281085144703 0)" font-family="Helvetica Neue, Helvetica, Arial, sans-serif">PARENT_OF</text></g><g class="relationship" transform="translate(-225.01974756309397 -147.39875251958898) rotate(456.8386918446961)"><path class="b-outline" fill="#A5ABB6" stroke="none" d="M 25 0.5 L 76.4494439967548 0.5 L 76.4494439967548 -0.5 L 25 -0.5 Z M 129.86350649675478 0.5 L 181.3129504935096 0.5 L 181.3129504935096 3.5 L 188.3129504935096 0 L 181.3129504935096 -3.5 L 181.3129504935096 -0.5 L 129.86350649675478 -0.5 Z"/><text text-anchor="middle" pointer-events="none" font-size="8px" fill="#000000" x="103.1564752467548" y="3" transform="rotate(180 103.1564752467548 0)" font-family="Helvetica Neue, Helvetica, Arial, sans-serif">PARENT_OF</text></g><g class="relationship" transform="translate(-139.76499465570265 -136.1102083158985) rotate(357.8068016189749)"><path class="b-outline" fill="#A5ABB6" stroke="none" d="M 24.018736134675446,-6.953439040707552 L 24.277555179777966,-5.987513214418485 A 230.53910744412394 230.53910744412394 0 0 1 52.593945425296184,-11.701213122914567 L 52.45795322098196,-12.69192303018599 A 231.53910744412394 231.53910744412394 0 0 0 24.018736134675446,-6.953439040707552 Z M 110.73084234265482,-13.288404269730137 L 110.61515831929016,-12.295118204823268 A 230.53910744412394 230.53910744412394 0 0 1 139.0425740481446,-7.162247842179534 L 138.32559668367406,-4.249183569143851 L 145.95922024597294,-5.974811370587611 L 139.99854386743863,-11.046333539560445 L 139.2815665029681,-8.133269266524762 A 231.53910744412394 231.53910744412394 0 0 0 110.73084234265482,-13.288404269730137"/><text text-anchor="middle" pointer-events="none" font-size="8px" fill="#000000" x="81.58067461869996" y="-11.330840120203533" font-family="Helvetica Neue, Helvetica, Arial, sans-serif">MARRIED_TO</text></g><g class="relationship" transform="translate(-139.76499465570265 -136.1102083158985) rotate(446.90281853119154)"><path class="b-outline" fill="#A5ABB6" stroke="none" d="M 25 0.5 L 71.10293067624355 0.5 L 71.10293067624355 -0.5 L 25 -0.5 Z M 124.51699317624355 0.5 L 170.6199238524871 0.5 L 170.6199238524871 3.5 L 177.6199238524871 0 L 170.6199238524871 -3.5 L 170.6199238524871 -0.5 L 124.51699317624355 -0.5 Z"/><text text-anchor="middle" pointer-events="none" font-size="8px" fill="#000000" x="97.80996192624355" y="3" font-family="Helvetica Neue, Helvetica, Arial, sans-serif">PARENT_OF</text></g><g class="relationship" transform="translate(-139.76499465570265 -136.1102083158985) rotate(413.44092355294083)"><path class="b-outline" fill="#A5ABB6" stroke="none" d="M 25 0.5 L 95.49592087541998 0.5 L 95.49592087541998 -0.5 L 25 -0.5 Z M 148.90998337541998 0.5 L 219.40590425083997 0.5 L 219.40590425083997 3.5 L 226.40590425083997 0 L 219.40590425083997 -3.5 L 219.40590425083997 -0.5 L 148.90998337541998 -0.5 Z"/><text text-anchor="middle" pointer-events="none" font-size="8px" fill="#000000" x="122.20295212541998" y="3" font-family="Helvetica Neue, Helvetica, Arial, sans-serif">PARENT_OF</text></g><g class="relationship" transform="translate(30.345058522272286 -142.6249537954247) rotate(537.8068016189749)"><path class="b-outline" fill="#A5ABB6" stroke="none" d="M 24.018736134675446,-6.953439040707552 L 24.277555179777966,-5.987513214418485 A 230.53910744412394 230.53910744412394 0 0 1 52.593945425296184,-11.701213122914567 L 52.45795322098196,-12.69192303018599 A 231.53910744412394 231.53910744412394 0 0 0 24.018736134675446,-6.953439040707552 Z M 110.73084234265482,-13.288404269730137 L 110.61515831929016,-12.295118204823268 A 230.53910744412394 230.53910744412394 0 0 1 139.0425740481446,-7.162247842179534 L 138.32559668367406,-4.249183569143851 L 145.95922024597294,-5.974811370587611 L 139.99854386743863,-11.046333539560445 L 139.2815665029681,-8.133269266524762 A 231.53910744412394 231.53910744412394 0 0 0 110.73084234265482,-13.288404269730137"/><text text-anchor="middle" pointer-events="none" font-size="8px" fill="#000000" x="81.58067461869996" y="-11.330840120203533" transform="rotate(180 81.58067461869996 -14.330840120203533)" font-family="Helvetica Neue, Helvetica, Arial, sans-serif">MARRIED_TO</text></g><g class="relationship" transform="translate(30.345058522272286 -142.6249537954247) rotate(487.3121675398754)"><path class="b-outline" fill="#A5ABB6" stroke="none" d="M 25 0.5 L 101.08113172664076 0.5 L 101.08113172664076 -0.5 L 25 -0.5 Z M 154.49519422664076 0.5 L 230.57632595328153 0.5 L 230.57632595328153 3.5 L 237.57632595328153 0 L 230.57632595328153 -3.5 L 230.57632595328153 -0.5 L 154.49519422664076 -0.5 Z"/><text text-anchor="middle" pointer-events="none" font-size="8px" fill="#000000" x="127.78816297664076" y="3" transform="rotate(180 127.78816297664076 0)" font-family="Helvetica Neue, Helvetica, Arial, sans-serif">PARENT_OF</text></g><g class="relationship" transform="translate(30.345058522272286 -142.6249537954247) rotate(455.5783897645678)"><path class="b-outline" fill="#A5ABB6" stroke="none" d="M 25 0.5 L 74.51632925435926 0.5 L 74.51632925435926 -0.5 L 25 -0.5 Z M 127.93039175435926 0.5 L 177.44672100871853 0.5 L 177.44672100871853 3.5 L 184.44672100871853 0 L 177.44672100871853 -3.5 L 177.44672100871853 -0.5 L 127.93039175435926 -0.5 Z"/><text text-anchor="middle" pointer-events="none" font-size="8px" fill="#000000" x="101.22336050435926" y="3" transform="rotate(180 101.22336050435926 0)" font-family="Helvetica Neue, Helvetica, Arial, sans-serif">PARENT_OF</text></g><g class="relationship" transform="translate(116.32967322531982 -141.94127382893302) rotate(361.34150050126675)"><path class="b-outline" fill="#A5ABB6" stroke="none" d="M 24.018736134675446,-6.953439040707552 L 24.277555179777966,-5.987513214418485 A 221.35843319853922 221.35843319853922 0 0 1 50.260671685035504,-11.304804268603505 L 50.11923292732394,-12.294751276183717 A 222.35843319853922 222.35843319853922 0 0 0 24.018736134675446,-6.953439040707552 Z M 108.3840847704862,-12.907369125538821 L 108.26349230678176,-11.914667026368221 A 221.35843319853922 221.35843319853922 0 0 1 134.35266798920756,-7.144882996433072 L 133.63731234983712,-4.231420055323145 L 141.26997412502578,-5.961296994753692 L 135.30647550836815,-11.029500251246308 L 134.5911198689977,-8.116037310136381 A 222.35843319853922 222.35843319853922 0 0 0 108.3840847704862,-12.907369125538821"/><text text-anchor="middle" pointer-events="none" font-size="8px" fill="#000000" x="79.23676213710795" y="-11.017856506623616" font-family="Helvetica Neue, Helvetica, Arial, sans-serif">MARRIED_TO</text></g><g class="relationship" transform="translate(116.32967322531982 -141.94127382893302) rotate(442.31900899790367)"><path class="b-outline" fill="#A5ABB6" stroke="none" d="M 25 0.5 L 71.19514870230722 0.5 L 71.19514870230722 -0.5 L 25 -0.5 Z M 124.60921120230722 0.5 L 170.80435990461444 0.5 L 170.80435990461444 3.5 L 177.80435990461444 0 L 170.80435990461444 -3.5 L 170.80435990461444 -0.5 L 124.60921120230722 -0.5 Z"/><text text-anchor="middle" pointer-events="none" font-size="8px" fill="#000000" x="97.90217995230722" y="3" font-family="Helvetica Neue, Helvetica, Arial, sans-serif">PARENT_OF</text></g><g class="relationship" transform="translate(281.83313060447404 -138.06553372077806) rotate(181.34150050126675)"><path class="b-outline" fill="#A5ABB6" stroke="none" d="M 24.018736134675446,-6.953439040707552 L 24.277555179777966,-5.987513214418485 A 221.35843319853922 221.35843319853922 0 0 1 50.260671685035504,-11.304804268603505 L 50.11923292732394,-12.294751276183717 A 222.35843319853922 222.35843319853922 0 0 0 24.018736134675446,-6.953439040707552 Z M 108.3840847704862,-12.907369125538821 L 108.26349230678176,-11.914667026368221 A 221.35843319853922 221.35843319853922 0 0 1 134.35266798920756,-7.144882996433072 L 133.63731234983712,-4.231420055323145 L 141.26997412502578,-5.961296994753692 L 135.30647550836815,-11.029500251246308 L 134.5911198689977,-8.116037310136381 A 222.35843319853922 222.35843319853922 0 0 0 108.3840847704862,-12.907369125538821"/><text text-anchor="middle" pointer-events="none" font-size="8px" fill="#000000" x="79.23676213710795" y="-11.017856506623616" transform="rotate(180 79.23676213710795 -14.017856506623616)" font-family="Helvetica Neue, Helvetica, Arial, sans-serif">MARRIED_TO</text></g><g class="relationship" transform="translate(281.83313060447404 -138.06553372077806) rotate(485.0740443753666)"><path class="b-outline" fill="#A5ABB6" stroke="none" d="M 25 0.5 L 90.21485341658612 0.5 L 90.21485341658612 -0.5 L 25 -0.5 Z M 143.62891591658612 0.5 L 208.84376933317225 0.5 L 208.84376933317225 3.5 L 215.84376933317225 0 L 208.84376933317225 -3.5 L 208.84376933317225 -0.5 L 143.62891591658612 -0.5 Z"/><text text-anchor="middle" pointer-events="none" font-size="8px" fill="#000000" x="116.92188466658612" y="3" transform="rotate(180 116.92188466658612 0)" font-family="Helvetica Neue, Helvetica, Arial, sans-serif">PARENT_OF</text></g><g class="relationship" transform="translate(143.4359766686198 59.043443774073125) rotate(446.9518391588025)"><path class="b-outline" fill="#A5ABB6" stroke="none" d="M 24.018736134675446,-6.953439040707552 L 24.277555179777966,-5.987513214418485 A 237.18223197672833 237.18223197672833 0 0 1 54.28404635924544,-11.984193005137513 L 54.15173970476083,-12.975401837412079 A 238.18223197672833 238.18223197672833 0 0 0 24.018736134675446,-6.953439040707552 Z M 112.42975723015205,-13.560715392161 L 112.31738561018382,-12.567049140834257 A 237.18223197672833 237.18223197672833 0 0 1 142.43826661753744,-7.174256844006827 L 141.72016772578115,-4.261468835644671 L 149.35445511900852,-5.984157431302487 L 143.39573180654583,-11.057974188489702 L 142.67763291478954,-8.145186180127546 A 238.18223197672833 238.18223197672833 0 0 0 112.42975723015205,-13.560715392161"/><text text-anchor="middle" pointer-events="none" font-size="8px" fill="#000000" x="83.27779985850641" y="-11.557315036744" font-family="Helvetica Neue, Helvetica, Arial, sans-serif">MARRIED_TO</text></g><g class="relationship" transform="translate(143.4359766686198 59.043443774073125) rotate(397.9734390700976)"><path class="b-outline" fill="#A5ABB6" stroke="none" d="M 25 0.5 L 47.08928304898794 0.5 L 47.08928304898794 -0.5 L 25 -0.5 Z M 100.50334554898794 0.5 L 122.59262859797587 0.5 L 122.59262859797587 3.5 L 129.59262859797587 0 L 122.59262859797587 -3.5 L 122.59262859797587 -0.5 L 100.50334554898794 -0.5 Z"/><text text-anchor="middle" pointer-events="none" font-size="8px" fill="#000000" x="73.79631429898794" y="3" font-family="Helvetica Neue, Helvetica, Arial, sans-serif">PARENT_OF</text></g><g class="relationship" transform="translate(152.66868993851955 232.4254821378484) rotate(266.9518391588025)"><path class="b-outline" fill="#A5ABB6" stroke="none" d="M 24.018736134675446,-6.953439040707552 L 24.277555179777966,-5.987513214418485 A 237.18223197672833 237.18223197672833 0 0 1 54.28404635924544,-11.984193005137513 L 54.15173970476083,-12.975401837412079 A 238.18223197672833 238.18223197672833 0 0 0 24.018736134675446,-6.953439040707552 Z M 112.42975723015205,-13.560715392161 L 112.31738561018382,-12.567049140834257 A 237.18223197672833 237.18223197672833 0 0 1 142.43826661753744,-7.174256844006827 L 141.72016772578115,-4.261468835644671 L 149.35445511900852,-5.984157431302487 L 143.39573180654583,-11.057974188489702 L 142.67763291478954,-8.145186180127546 A 238.18223197672833 238.18223197672833 0 0 0 112.42975723015205,-13.560715392161"/><text text-anchor="middle" pointer-events="none" font-size="8px" fill="#000000" x="83.27779985850641" y="-11.557315036744" transform="rotate(180 83.27779985850641 -14.557315036744)" font-family="Helvetica Neue, Helvetica, Arial, sans-serif">MARRIED_TO</text></g><g class="relationship" transform="translate(152.66868993851955 232.4254821378484) rotate(325.20669519224464)"><path class="b-outline" fill="#A5ABB6" stroke="none" d="M 25 0.5 L 38.36936257626296 0.5 L 38.36936257626296 -0.5 L 25 -0.5 Z M 91.78342507626296 0.5 L 105.15278765252592 0.5 L 105.15278765252592 3.5 L 112.15278765252592 0 L 105.15278765252592 -3.5 L 105.15278765252592 -0.5 L 91.78342507626296 -0.5 Z"/><text text-anchor="middle" pointer-events="none" font-size="8px" fill="#000000" x="65.07639382626296" y="3" font-family="Helvetica Neue, Helvetica, Arial, sans-serif">PARENT_OF</text></g></g><g class="layer nodes"><g class="node" aria-label="graph-node0" transform="translate(-209.32188514032765,-313.069402504017)"><circle class="b-outline" cx="0" cy="0" r="25" fill="#FFC454" stroke="#d7a013" stroke-width="2px"/><text class="caption" text-anchor="middle" pointer-events="none" x="0" y="5" font-size="10px" fill="#2A2C34" font-family="Helvetica Neue, Helvetica, Arial, sans-serif"> Phoolch…</text></g><g class="node" aria-label="graph-node1" transform="translate(-421.42522354121354,-308.9396028992817)"><circle class="b-outline" cx="0" cy="0" r="25" fill="#FFC454" stroke="#d7a013" stroke-width="2px"/><text class="caption" text-anchor="middle" pointer-events="none" x="0" y="-5" font-size="10px" fill="#2A2C34" font-family="Helvetica Neue, Helvetica, Arial, sans-serif"> Savtri</text><text class="caption" text-anchor="middle" pointer-events="none" x="0" y="5" font-size="10px" fill="#2A2C34" font-family="Helvetica Neue, Helvetica, Arial, sans-serif"> devi</text><text class="caption" text-anchor="middle" pointer-events="none" x="0" y="15" font-size="10px" fill="#2A2C34" font-family="Helvetica Neue, Helvetica, Arial, sans-serif"> Sab…</text></g><g class="node" aria-label="graph-node2" transform="translate(-853.965919325241,-150.63863602562154)"><circle class="b-outline" cx="0" cy="0" r="25" fill="#8DCC93" stroke="#5db665" stroke-width="2px"/><text class="caption" text-anchor="middle" pointer-events="none" x="0" y="0" font-size="10px" fill="#2A2C34" font-family="Helvetica Neue, Helvetica, Arial, sans-serif"> Natwar</text><text class="caption" text-anchor="middle" pointer-events="none" x="0" y="10" font-size="10px" fill="#2A2C34" font-family="Helvetica Neue, Helvetica, Arial, sans-serif"> Saboo</text></g><g class="node" aria-label="graph-node3" transform="translate(-690.3315268640202,-149.35629664606967)"><circle class="b-outline" cx="0" cy="0" r="25" fill="#ECB5C9" stroke="#da7298" stroke-width="2px"/><text class="caption" text-anchor="middle" pointer-events="none" x="0" y="0" font-size="10px" fill="#2A2C34" font-family="Helvetica Neue, Helvetica, Arial, sans-serif"> Deepa</text><text class="caption" text-anchor="middle" pointer-events="none" x="0" y="10" font-size="10px" fill="#2A2C34" font-family="Helvetica Neue, Helvetica, Arial, sans-serif"> Saboo</text></g><g class="node" aria-label="graph-node4" transform="translate(-696.825651154906,42.07401808276684)"><circle class="b-outline" cx="0" cy="0" r="25" fill="#DA7194" stroke="#cc3c6c" stroke-width="2px"/><text class="caption" text-anchor="middle" pointer-events="none" x="0" y="0" font-size="10px" fill="#FFFFFF" font-family="Helvetica Neue, Helvetica, Arial, sans-serif"> Manish</text><text class="caption" text-anchor="middle" pointer-events="none" x="0" y="10" font-size="10px" fill="#FFFFFF" font-family="Helvetica Neue, Helvetica, Arial, sans-serif"> Saboo</text></g><g class="node" aria-label="graph-node5" transform="translate(-703.5701183994975,216.1852495373511)"><circle class="b-outline" cx="0" cy="0" r="25" fill="#4C8EDA" stroke="#2870c2" stroke-width="2px"/><text class="caption" text-anchor="middle" pointer-events="none" x="0" y="0" font-size="10px" fill="#FFFFFF" font-family="Helvetica Neue, Helvetica, Arial, sans-serif"> Prachi</text><text class="caption" text-anchor="middle" pointer-events="none" x="0" y="10" font-size="10px" fill="#FFFFFF" font-family="Helvetica Neue, Helvetica, Arial, sans-serif"> Saboo</text></g><g class="node" aria-label="graph-node6" transform="translate(-858.5397858922524,34.70556198050069)"><circle class="b-outline" cx="0" cy="0" r="25" fill="#DA7194" stroke="#cc3c6c" stroke-width="2px"/><text class="caption" text-anchor="middle" pointer-events="none" x="0" y="0" font-size="10px" fill="#FFFFFF" font-family="Helvetica Neue, Helvetica, Arial, sans-serif"> Nidhi</text><text class="caption" text-anchor="middle" pointer-events="none" x="0" y="10" font-size="10px" fill="#FFFFFF" font-family="Helvetica Neue, Helvetica, Arial, sans-serif"> Saboo</text></g><g class="node" aria-label="graph-node7" transform="translate(-591.8677121326072,-137.5477566953068)"><circle class="b-outline" cx="0" cy="0" r="25" fill="#8DCC93" stroke="#5db665" stroke-width="2px"/><text class="caption" text-anchor="middle" pointer-events="none" x="0" y="0" font-size="10px" fill="#2A2C34" font-family="Helvetica Neue, Helvetica, Arial, sans-serif"> Manoj</text><text class="caption" text-anchor="middle" pointer-events="none" x="0" y="10" font-size="10px" fill="#2A2C34" font-family="Helvetica Neue, Helvetica, Arial, sans-serif"> saboo</text></g><g class="node" aria-label="graph-node8" transform="translate(-469.4379362579607,-141.39148903247886)"><circle class="b-outline" cx="0" cy="0" r="25" fill="#ECB5C9" stroke="#da7298" stroke-width="2px"/><text class="caption" text-anchor="middle" pointer-events="none" x="0" y="0" font-size="10px" fill="#2A2C34" font-family="Helvetica Neue, Helvetica, Arial, sans-serif"> Kavit</text><text class="caption" text-anchor="middle" pointer-events="none" x="0" y="10" font-size="10px" fill="#2A2C34" font-family="Helvetica Neue, Helvetica, Arial, sans-serif"> Saboo</text></g><g class="node" aria-label="graph-node9" transform="translate(-477.23919761803944,51.613001375530644)"><circle class="b-outline" cx="0" cy="0" r="25" fill="#DA7194" stroke="#cc3c6c" stroke-width="2px"/><text class="caption" text-anchor="middle" pointer-events="none" x="0" y="0" font-size="10px" fill="#FFFFFF" font-family="Helvetica Neue, Helvetica, Arial, sans-serif"> Khushboo</text><text class="caption" text-anchor="middle" pointer-events="none" x="0" y="10" font-size="10px" fill="#FFFFFF" font-family="Helvetica Neue, Helvetica, Arial, sans-serif"> Saboo</text></g><g class="node" aria-label="graph-node10" transform="translate(-589.9901977079076,50.220094909180375)"><circle class="b-outline" cx="0" cy="0" r="25" fill="#DA7194" stroke="#cc3c6c" stroke-width="2px"/><text class="caption" text-anchor="middle" pointer-events="none" x="0" y="0" font-size="10px" fill="#FFFFFF" font-family="Helvetica Neue, Helvetica, Arial, sans-serif"> Rishit</text><text class="caption" text-anchor="middle" pointer-events="none" x="0" y="10" font-size="10px" fill="#FFFFFF" font-family="Helvetica Neue, Helvetica, Arial, sans-serif"> Saboo</text></g><g class="node" aria-label="graph-node11" transform="translate(-394.73165387920534,-135.5470445481808)"><circle class="b-outline" cx="0" cy="0" r="25" fill="#8DCC93" stroke="#5db665" stroke-width="2px"/><text class="caption" text-anchor="middle" pointer-events="none" x="0" y="0" font-size="10px" fill="#2A2C34" font-family="Helvetica Neue, Helvetica, Arial, sans-serif"> Jitendra</text><text class="caption" text-anchor="middle" pointer-events="none" x="0" y="10" font-size="10px" fill="#2A2C34" font-family="Helvetica Neue, Helvetica, Arial, sans-serif"> Saboo</text></g><g class="node" aria-label="graph-node12" transform="translate(-225.01974756309397,-147.39875251958898)"><circle class="b-outline" cx="0" cy="0" r="25" fill="#ECB5C9" stroke="#da7298" stroke-width="2px"/><text class="caption" text-anchor="middle" pointer-events="none" x="0" y="0" font-size="10px" fill="#2A2C34" font-family="Helvetica Neue, Helvetica, Arial, sans-serif"> Meena</text><text class="caption" text-anchor="middle" pointer-events="none" x="0" y="10" font-size="10px" fill="#2A2C34" font-family="Helvetica Neue, Helvetica, Arial, sans-serif"> Saboo</text></g><g class="node" aria-label="graph-node13" transform="translate(-383.7036038708677,61.589630048859405)"><circle class="b-outline" cx="0" cy="0" r="25" fill="#DA7194" stroke="#cc3c6c" stroke-width="2px"/><text class="caption" text-anchor="middle" pointer-events="none" x="0" y="0" font-size="10px" fill="#FFFFFF" font-family="Helvetica Neue, Helvetica, Arial, sans-serif"> Vanshika</text><text class="caption" text-anchor="middle" pointer-events="none" x="0" y="10" font-size="10px" fill="#FFFFFF" font-family="Helvetica Neue, Helvetica, Arial, sans-serif"> Saboo</text></g><g class="node" aria-label="graph-node14" transform="translate(-250.41987855578793,64.39654533614828)"><circle class="b-outline" cx="0" cy="0" r="25" fill="#DA7194" stroke="#cc3c6c" stroke-width="2px"/><text class="caption" text-anchor="middle" pointer-events="none" x="0" y="0" font-size="10px" fill="#FFFFFF" font-family="Helvetica Neue, Helvetica, Arial, sans-serif"> Prajval</text><text class="caption" text-anchor="middle" pointer-events="none" x="0" y="10" font-size="10px" fill="#FFFFFF" font-family="Helvetica Neue, Helvetica, Arial, sans-serif"> Saboo</text></g><g class="node" aria-label="graph-node15" transform="translate(-139.76499465570265,-136.1102083158985)"><circle class="b-outline" cx="0" cy="0" r="25" fill="#8DCC93" stroke="#5db665" stroke-width="2px"/><text class="caption" text-anchor="middle" pointer-events="none" x="0" y="0" font-size="10px" fill="#2A2C34" font-family="Helvetica Neue, Helvetica, Arial, sans-serif"> Anil</text><text class="caption" text-anchor="middle" pointer-events="none" x="0" y="10" font-size="10px" fill="#2A2C34" font-family="Helvetica Neue, Helvetica, Arial, sans-serif"> Saboo</text></g><g class="node" aria-label="graph-node16" transform="translate(30.345058522272286,-142.6249537954247)"><circle class="b-outline" cx="0" cy="0" r="25" fill="#ECB5C9" stroke="#da7298" stroke-width="2px"/><text class="caption" text-anchor="middle" pointer-events="none" x="0" y="0" font-size="10px" fill="#2A2C34" font-family="Helvetica Neue, Helvetica, Arial, sans-serif"> Krishna</text><text class="caption" text-anchor="middle" pointer-events="none" x="0" y="10" font-size="10px" fill="#2A2C34" font-family="Helvetica Neue, Helvetica, Arial, sans-serif"> Saboo</text></g><g class="node" aria-label="graph-node17" transform="translate(-128.81750252520845,66.21375457045968)"><circle class="b-outline" cx="0" cy="0" r="25" fill="#DA7194" stroke="#cc3c6c" stroke-width="2px"/><text class="caption" text-anchor="middle" pointer-events="none" x="0" y="0" font-size="10px" fill="#FFFFFF" font-family="Helvetica Neue, Helvetica, Arial, sans-serif"> Diya</text><text class="caption" text-anchor="middle" pointer-events="none" x="0" y="10" font-size="10px" fill="#FFFFFF" font-family="Helvetica Neue, Helvetica, Arial, sans-serif"> Saboo</text></g><g class="node" aria-label="graph-node18" transform="translate(9.98526154173193,65.82985571545024)"><circle class="b-outline" cx="0" cy="0" r="25" fill="#DA7194" stroke="#cc3c6c" stroke-width="2px"/><text class="caption" text-anchor="middle" pointer-events="none" x="0" y="0" font-size="10px" fill="#FFFFFF" font-family="Helvetica Neue, Helvetica, Arial, sans-serif"> Kimisha</text><text class="caption" text-anchor="middle" pointer-events="none" x="0" y="10" font-size="10px" fill="#FFFFFF" font-family="Helvetica Neue, Helvetica, Arial, sans-serif"> Saboo</text></g><g class="node" aria-label="graph-node19" transform="translate(116.32967322531982,-141.94127382893302)"><circle class="b-outline" cx="0" cy="0" r="25" fill="#8DCC93" stroke="#5db665" stroke-width="2px"/><text class="caption" text-anchor="middle" pointer-events="none" x="0" y="0" font-size="10px" fill="#2A2C34" font-family="Helvetica Neue, Helvetica, Arial, sans-serif"> Sunita</text><text class="caption" text-anchor="middle" pointer-events="none" x="0" y="10" font-size="10px" fill="#2A2C34" font-family="Helvetica Neue, Helvetica, Arial, sans-serif"> Mundra</text></g><g class="node" aria-label="graph-node20" transform="translate(281.83313060447404,-138.06553372077806)"><circle class="b-outline" cx="0" cy="0" r="25" fill="#ECB5C9" stroke="#da7298" stroke-width="2px"/><text class="caption" text-anchor="middle" pointer-events="none" x="0" y="0" font-size="10px" fill="#2A2C34" font-family="Helvetica Neue, Helvetica, Arial, sans-serif"> Kriparam </text><text class="caption" text-anchor="middle" pointer-events="none" x="0" y="10" font-size="10px" fill="#2A2C34" font-family="Helvetica Neue, Helvetica, Arial, sans-serif"> Mundra</text></g><g class="node" aria-label="graph-node21" transform="translate(143.4359766686198,59.043443774073125)"><circle class="b-outline" cx="0" cy="0" r="25" fill="#DA7194" stroke="#cc3c6c" stroke-width="2px"/><text class="caption" text-anchor="middle" pointer-events="none" x="0" y="0" font-size="10px" fill="#FFFFFF" font-family="Helvetica Neue, Helvetica, Arial, sans-serif"> Saurabh</text><text class="caption" text-anchor="middle" pointer-events="none" x="0" y="10" font-size="10px" fill="#FFFFFF" font-family="Helvetica Neue, Helvetica, Arial, sans-serif"> Saboo</text></g><g class="node" aria-label="graph-node22" transform="translate(152.66868993851955,232.4254821378484)"><circle class="b-outline" cx="0" cy="0" r="25" fill="#4C8EDA" stroke="#2870c2" stroke-width="2px"/><text class="caption" text-anchor="middle" pointer-events="none" x="0" y="0" font-size="10px" fill="#FFFFFF" font-family="Helvetica Neue, Helvetica, Arial, sans-serif"> palak</text><text class="caption" text-anchor="middle" pointer-events="none" x="0" y="10" font-size="10px" fill="#FFFFFF" font-family="Helvetica Neue, Helvetica, Arial, sans-serif"> Saboo</text></g><g class="node" aria-label="graph-node23" transform="translate(265.30073895610303,154.16368625403587)"><circle class="b-outline" cx="0" cy="0" r="25" fill="#569480" stroke="#447666" stroke-width="2px"/><text class="caption" text-anchor="middle" pointer-events="none" x="0" y="5" font-size="10px" fill="#FFFFFF" font-family="Helvetica Neue, Helvetica, Arial, sans-serif"> nurpendra</text></g></g></svg>